<svg width="46" height="46" viewBox="0 0 46 46" fill="none" xmlns="http://www.w3.org/2000/svg">
<path opacity="0.88" d="M46 23C46 35.7025 35.7025 46 23 46C10.2975 46 0 35.7025 0 23C0 10.2975 10.2975 0 23 0C35.7025 0 46 10.2975 46 23Z" fill="white"/>
<path d="M24.4141 35.356C23.1834 36.3867 20.5958 35.356 20.5958 35.356C20.8075 34.9115 20.9457 34.4356 21.005 33.9468C21.014 33.9021 21.0202 33.8569 21.0235 33.8114C21.071 33.4257 21.0895 33.0369 21.0789 32.6484C21.0789 32.4146 21.0789 32.1808 21.042 31.9561C20.985 31.2575 20.8697 30.5649 20.6974 29.8855L24.0018 29.7839C23.8039 30.49 23.7248 31.2241 23.768 31.9561C23.768 32.2946 23.8141 32.6269 23.8541 32.9407C23.8941 33.2546 23.9372 33.4945 23.9895 33.7468L24.0172 33.8761C24.1184 34.3772 24.251 34.8715 24.4141 35.356V35.356Z" fill="#CD8B6D"/>
<path d="M13.356 39.748C13.3161 39.548 14.7283 36.3283 18.1866 35.0022C18.6991 34.8054 19.2299 34.6601 19.7711 34.5683C20.5124 34.4484 21.2651 34.4153 22.0141 34.4699C23.4084 34.5486 24.7925 34.7545 26.1493 35.0852C26.8786 35.2678 27.587 35.5256 28.263 35.8544C30.2906 36.8513 31.4199 38.3849 32.0168 40.6371C33.066 44.6 14.5498 45.8708 13.356 39.748Z" fill="#CD8B6D"/>
<path d="M11.0006 40.1105C10.9593 39.9299 13.2216 36.6579 16.574 35.2635C16.7972 35.1687 17.0308 35.0799 17.2609 35C19.8851 36.353 25.5593 38.4934 28.5098 35.826C28.9562 36.0146 29.3826 36.2365 29.7841 36.4891C31.2679 37.4306 33.4436 38.8714 33.9554 40.5914C35.1404 44.3987 12.3332 46.0019 11.0006 40.1105Z" fill="#ADC0E0"/>
<path d="M29.408 36.5498C27.2297 39.5958 20.793 36.9405 17.5593 35.276C17.7593 35.1775 17.9685 35.0852 18.1747 35.0022C20.5253 36.4083 25.6082 38.6328 28.2512 35.8606C28.6563 36.0558 29.0435 36.2865 29.408 36.5498V36.5498Z" fill="white"/>
<path d="M28.9771 22.4212C26.4603 21.3658 23.3528 21.9843 20.7098 21.972C19.0176 21.972 17.3253 21.8427 15.6208 21.7566C14.8516 21.7197 14.4916 21.9166 14.2732 22.6212C14.2633 22.6574 14.2639 22.6956 14.2748 22.7315C14.2857 22.7674 14.3064 22.7996 14.3347 22.8242C13.8701 24.5688 13.467 26.7779 14.6424 28.264C16.0392 30.0424 17.9961 30.5408 20.1314 29.8024C20.163 29.7906 20.1914 29.7716 20.2144 29.747C21.2266 29.8755 22.2274 30.0813 23.2081 30.3624C23.7558 30.5285 24.2943 30.7408 24.7712 30.5716C24.789 30.5862 24.8104 30.5956 24.8332 30.5988C24.856 30.6021 24.8792 30.599 24.9004 30.59C27.0387 29.787 29.7402 29.3993 30.577 26.9225C31.1493 25.2118 30.8047 23.1904 28.9771 22.4212Z" fill="#4A1D1D"/>
<path d="M30.2325 20.8736C30.3796 20.6771 30.5806 20.5275 30.8109 20.4428C31.0247 20.3541 31.2476 20.2891 31.4755 20.249C31.9216 20.1598 32.4662 20.1536 32.7831 20.5382C32.986 20.8492 33.093 21.213 33.0908 21.5843C33.1585 23.1012 31.8816 23.9411 30.5709 24.3011C30.3217 24.3688 29.891 24.6088 29.7064 24.3227C29.4018 23.8058 29.8571 21.4182 30.2325 20.8736Z" fill="#CD8B6D"/>
<path d="M30.2294 22.0212C30.2294 22.0212 31.8355 20.532 32.0509 21.3535C32.1689 21.9256 32.1242 22.5194 31.9217 23.0673C31.9217 23.0673 31.9463 21.9997 31.054 22.3843C31.054 22.3843 31.3617 24.178 30.011 23.3411C29.8758 23.1336 29.8233 22.883 29.8638 22.6387C29.9042 22.3944 30.0347 22.1741 30.2294 22.0212Z" fill="#B66C50"/>
<path d="M14.8608 20.8736C14.7136 20.6771 14.5127 20.5275 14.2823 20.4428C14.0686 20.3541 13.8457 20.2891 13.6178 20.249C13.1716 20.1598 12.627 20.1536 12.3101 20.5382C12.1073 20.8492 12.0003 21.213 12.0024 21.5843C11.9348 23.1012 13.2147 23.9411 14.5223 24.3011C14.7716 24.3688 15.2023 24.6088 15.3869 24.3227C15.6946 23.8058 15.2392 21.4182 14.8608 20.8736Z" fill="#CD8B6D"/>
<path d="M14.8669 22.0212C14.8669 22.0212 13.2609 20.532 13.0424 21.3535C12.9263 21.926 12.9721 22.5195 13.1747 23.0673C13.1747 23.0673 13.147 21.9997 14.0393 22.3843C14.0393 22.3843 13.7316 24.178 15.0823 23.3411C15.2185 23.1342 15.2719 22.8837 15.232 22.6392C15.1921 22.3947 15.0618 22.1741 14.8669 22.0212V22.0212Z" fill="#B66C50"/>
<path d="M30.6876 19.6059C30.6568 19.8982 30.6199 20.1936 30.5799 20.492C30.3454 22.387 30.0023 24.2669 29.5522 26.1226C28.6661 29.6116 24.3494 31.3254 22.811 31.2085C14.8852 30.1439 14.4729 24.7042 14.5283 24.1103C14.6237 23.1873 14.4606 22.1812 14.4021 21.2582C14.3683 20.7659 14.2975 20.2613 14.2268 19.7567C14.0725 18.9123 14.0435 18.0497 14.1406 17.1968C14.1451 17.1553 14.1523 17.1142 14.1622 17.0737C14.3194 16.2182 14.5669 15.3818 14.9006 14.5785C15.9067 12.117 17.9404 9.391 20.8449 9.34793C21.5369 9.34241 22.2253 9.44625 22.8848 9.6556C23.8428 9.96002 24.7594 10.3817 25.614 10.9109C27.4416 12.0155 29.2661 13.2739 30.1799 15.2861C30.8199 16.6922 30.8383 18.1229 30.6876 19.6059Z" fill="#FFC29C"/>
<path d="M15.8729 8.13871C15.4318 8.48473 15.0258 8.87325 14.6607 9.29866C14.3375 9.67087 14.0529 10.075 13.8115 10.5048C13.0331 11.9265 12.6716 13.5389 12.7685 15.1569V15.1569L12.8084 15.8061C12.9468 17.1538 13.257 18.4784 13.7315 19.7474V19.7474C13.8146 19.9751 13.9038 20.2028 13.993 20.4305C14.0017 20.4513 14.0131 20.471 14.0269 20.4889V20.4889C14.0578 20.5401 14.1045 20.5799 14.1599 20.6024C14.2154 20.6249 14.2766 20.6288 14.3344 20.6135C14.3923 20.5983 14.4436 20.5647 14.4808 20.5179C14.518 20.471 14.539 20.4134 14.5407 20.3536C14.6853 18.7782 14.8053 17.6091 15.8914 16.3537C16.716 15.4122 17.7375 14.6154 18.6236 13.7415C19.4016 12.9976 20.0689 12.1459 20.605 11.2124L20.7312 10.9786C20.9939 10.4793 21.2052 9.95454 21.3619 9.4125C21.5393 9.10554 21.7453 8.81606 21.9773 8.54793C22.0589 8.54793 22.1371 8.51551 22.1948 8.4578C22.2525 8.4001 22.285 8.32185 22.285 8.24025C22.2111 4.52964 17.4206 6.92338 15.8729 8.13871Z" fill="#603030"/>
<path d="M20.7221 11.0002L20.596 11.234C18.5622 11.0525 16.43 13.5231 15.5254 15.0985C14.5193 16.8522 14.3347 18.5691 14.0178 20.4951C14.0041 20.4772 13.9927 20.4575 13.9839 20.4367C13.8947 20.209 13.8055 19.9813 13.7224 19.7536C13.7835 17.5368 14.5973 15.4067 16.03 13.7139C17.1346 12.4217 18.836 10.3294 20.7221 11.0002Z" fill="#774545"/>
<path d="M12.7689 15.1599C13.0619 14.6444 13.4007 14.1563 13.7812 13.7015C15.5688 11.5847 18.4702 8.70791 21.4178 8.63715C21.5224 8.63715 21.5193 8.79098 21.4178 8.80022C18.7687 9.03405 15.9688 11.6432 14.3412 13.6092C13.7709 14.2982 13.2613 15.0353 12.8181 15.8122L12.7689 15.1599Z" fill="#774545"/>
<path d="M21.4943 8.45259C20.1866 8.4249 18.7252 7.9603 17.4452 8.40336C16.1676 8.83352 14.9835 9.50283 13.9561 10.3756L13.8115 10.5048C14.053 10.075 14.3375 9.67091 14.6607 9.2987C14.7069 9.26486 14.7499 9.23717 14.7961 9.20947C15.6945 8.63719 16.8268 7.95723 17.9129 7.84954C19.1436 7.72647 20.3005 8.04645 21.522 8.23721C21.645 8.25567 21.6143 8.45259 21.4943 8.45259Z" fill="#774545"/>
<path d="M32.9677 16.1999C32.9461 14.7108 32.3092 13.4462 31.6908 12.0401L31.4108 11.3724C31.34 11.2032 31.2723 11.0309 31.2077 10.8525C30.8324 9.84327 30.5554 8.8187 30.177 7.84336L29.8693 7.13877C29.5618 6.46262 29.1565 5.83541 28.6663 5.27732C27.5402 4.02507 26.0726 3.77277 24.6326 4.17891C24.5126 4.21583 24.3957 4.25275 24.2757 4.29583C23.9713 4.40443 23.676 4.53716 23.3927 4.69273C23.1914 4.80314 22.9963 4.92433 22.8081 5.05579C22.6881 5.13271 22.5712 5.2127 22.4573 5.30193C21.8974 5.71422 21.3712 6.18497 20.8574 6.63419L20.6451 6.81572C20.1313 7.228 19.4944 7.56645 18.956 7.97566L18.8206 8.08028C18.6265 8.23239 18.4491 8.40462 18.2914 8.5941C18.2585 8.54126 18.2125 8.49792 18.1577 8.46837C18.103 8.43882 18.0415 8.42409 17.9793 8.42565C17.9171 8.4272 17.8564 8.44499 17.8032 8.47723C17.75 8.50948 17.7062 8.55506 17.676 8.60948C16.9468 10.0986 17.8883 11.7786 18.6606 13.0831C19.7744 14.9784 21.2912 15.6092 23.4111 16.1107C24.6825 16.3899 25.8995 16.8752 27.0141 17.5476C27.5279 17.8552 28.0263 18.2244 28.5278 18.5598C28.8845 18.7975 29.2128 19.0752 29.5063 19.3875C29.7001 19.5752 29.8816 20.1197 30.1216 20.3105C30.9462 20.9259 31.5769 20.4243 32.02 19.6736C32.0815 19.569 32.14 19.4644 32.1954 19.3659C32.4235 18.8837 32.6089 18.3823 32.7492 17.8675C32.8537 17.5038 32.9227 17.1308 32.9553 16.7537C32.9691 16.5695 32.9732 16.3846 32.9677 16.1999V16.1999Z" fill="#4A1D1D"/>
<path d="M18.9624 7.9726C20.6393 11.7663 25.4052 13.2401 28.8512 15.4C30.2019 16.243 31.5219 17.326 32.0511 18.8829C32.1065 19.0398 32.1557 19.1906 32.1957 19.3505C32.1403 19.4613 32.0818 19.5659 32.0203 19.6582C31.819 18.7837 31.395 17.9761 30.7896 17.3137C29.3343 15.7322 27.2851 14.8092 25.4052 13.8277C22.6915 12.4093 19.9993 10.7509 18.824 8.0649L18.9624 7.9726Z" fill="#703838"/>
<path d="M20.6512 6.81265C20.8851 7.18187 21.1343 7.52647 21.3774 7.84954C22.6081 9.51408 24.4388 10.5879 26.2018 11.6124C28.7186 13.0708 31.3277 14.5139 32.9553 16.7384C32.9644 16.559 32.9644 16.3793 32.9553 16.1999C31.7061 14.6615 29.9093 13.4677 28.2109 12.4586C26.2756 11.3048 24.2357 10.3048 22.565 8.76641C21.8899 8.14344 21.3122 7.42261 20.8512 6.62805L20.6512 6.81265Z" fill="#703838"/>
<path d="M31.6908 12.0401C31.2141 11.7108 30.6971 11.444 30.1524 11.2463C28.5248 10.631 26.6695 10.1787 25.2819 9.07102C24.0431 8.06641 23.0727 6.77038 22.4574 5.29888C22.5712 5.20966 22.6882 5.12965 22.8081 5.05273C23.1024 5.74588 23.4795 6.40087 23.9312 7.00343C25.2234 8.74181 26.9095 9.59407 28.9156 10.3017C29.7743 10.587 30.6071 10.9452 31.4047 11.3725L31.6908 12.0401Z" fill="#703838"/>
<path d="M30.177 7.84029C28.3158 7.61082 26.5686 6.81985 25.168 5.5727C24.8137 5.19201 24.5182 4.76062 24.2911 4.29275C24.4111 4.24968 24.5281 4.21276 24.648 4.17584C25.2972 5.12349 26.2203 5.97576 26.771 6.25267C27.7526 6.7181 28.805 7.01654 29.8847 7.13571L30.177 7.84029Z" fill="#703838"/>
<g opacity="0.4">
<path opacity="0.4" d="M28.4356 24.058C28.4356 24.5195 27.8202 24.8918 27.0541 24.8918C26.288 24.8918 25.6726 24.5195 25.6726 24.058C25.6726 23.5965 26.288 23.2273 27.0541 23.2273C27.8202 23.2273 28.4356 23.5996 28.4356 24.058Z" fill="#DB5D7B"/>
<path opacity="0.4" d="M19.1774 24.3565C19.1774 24.818 18.562 25.1903 17.7959 25.1903C17.0298 25.1903 16.4175 24.818 16.4175 24.3565C16.4175 23.895 17.0328 23.5258 17.7959 23.5258C18.5589 23.5258 19.1774 23.8981 19.1774 24.3565Z" fill="#DB5D7B"/>
</g>
<path d="M23.4358 23.0919C23.0789 23.0919 22.8943 23.3996 22.6266 23.5073C22.6426 23.0516 22.7066 22.5989 22.8174 22.1566C22.884 21.6352 22.8954 21.1082 22.8512 20.5843C22.8512 20.5843 22.8512 20.5843 22.8512 20.5659C22.8512 20.3382 22.7374 20.1167 22.4943 20.3597C22.2513 20.6028 22.2543 21.0028 22.2174 21.3043C22.1374 21.9474 22.2174 22.5658 22.0667 23.1873C21.8667 23.015 21.642 22.7966 21.3959 22.9412C21.0298 23.1565 21.3036 23.6119 21.479 23.8304C21.6944 24.098 22.1959 24.6303 22.5928 24.5226C22.8533 24.4303 23.0848 24.2706 23.2637 24.0599C23.4425 23.8491 23.5624 23.5948 23.6112 23.3227C23.6182 23.2957 23.6189 23.2674 23.6134 23.2401C23.6079 23.2128 23.5963 23.187 23.5794 23.1648C23.5626 23.1426 23.5409 23.1245 23.516 23.1119C23.4911 23.0993 23.4637 23.0924 23.4358 23.0919V23.0919Z" fill="#CD8B6D"/>
<path d="M20.0393 18.9229C19.3901 18.4091 18.5963 18.4952 17.8333 18.6152C17.2179 18.7014 16.4056 18.9598 16.0334 19.5044C15.4642 20.3382 16.1964 20.9197 16.5687 21.6397C16.6303 21.7597 16.7626 21.7105 16.8026 21.612C16.8214 21.6058 16.8383 21.5949 16.8517 21.5804C16.8652 21.5659 16.8747 21.5482 16.8795 21.5289C16.9191 21.396 16.9408 21.2584 16.9441 21.1197C16.9521 21.0979 16.9521 21.0739 16.9441 21.052C17.1502 20.0951 18.0487 19.6029 18.9871 19.5475C19.9255 19.4921 20.0363 20.3567 20.2824 21.0674C20.2824 21.0859 20.2978 21.1043 20.3039 21.1259C20.3101 21.1474 20.3532 21.2582 20.3809 21.3197C20.4824 21.532 20.4639 21.5689 20.8239 21.1966C21.4085 20.5659 20.7808 19.5136 20.0393 18.9229Z" fill="#390A0A"/>
<path d="M16.6484 21.0858C16.6525 21.6051 16.8625 22.1015 17.2323 22.4661C17.602 22.8307 18.1014 23.0336 18.6207 23.0304C18.878 23.0324 19.1333 22.9837 19.3719 22.8871C19.6104 22.7904 19.8276 22.6478 20.0111 22.4672C20.1945 22.2866 20.3405 22.0717 20.4409 21.8347C20.5412 21.5977 20.5939 21.3432 20.596 21.0858C20.5939 20.8286 20.5412 20.5743 20.4408 20.3374C20.3404 20.1006 20.1943 19.8858 20.0109 19.7055C19.8274 19.5252 19.6102 19.3828 19.3716 19.2865C19.1331 19.1902 18.8779 19.1419 18.6207 19.1444C18.3637 19.1423 18.1088 19.191 17.8706 19.2874C17.6324 19.3839 17.4156 19.5263 17.2324 19.7066C17.0493 19.8869 16.9035 20.1015 16.8033 20.3381C16.7031 20.5748 16.6504 20.8288 16.6484 21.0858Z" fill="white"/>
<path d="M19.9375 21.1597C19.9375 22.0335 19.3868 22.7412 18.7068 22.7412C18.0268 22.7412 17.4761 22.0335 17.4761 21.1597C17.4761 20.2859 18.0268 19.5782 18.7068 19.5782C19.3868 19.5782 19.9375 20.2859 19.9375 21.1597Z" fill="#2B80B2"/>
<path d="M19.7591 21.1597C19.7591 21.9166 19.2791 22.5289 18.6915 22.5289C18.1038 22.5289 17.6207 21.9135 17.6207 21.1597C17.6207 20.4059 18.1007 19.7874 18.6915 19.7874C19.2822 19.7874 19.7591 20.4028 19.7591 21.1597Z" fill="#390A0A"/>
<path d="M19.1686 20.4028C19.4184 20.4028 19.6209 20.2651 19.6209 20.0951C19.6209 19.9252 19.4184 19.7874 19.1686 19.7874C18.9188 19.7874 18.7163 19.9252 18.7163 20.0951C18.7163 20.2651 18.9188 20.4028 19.1686 20.4028Z" fill="white"/>
<path d="M23.9032 21.1843C24.2632 21.5566 24.2447 21.5197 24.3432 21.3074C24.3739 21.2459 24.3986 21.1782 24.4232 21.1135C24.4478 21.0489 24.4386 21.0735 24.4447 21.0551C24.6909 20.3443 24.7524 19.4767 25.74 19.5352C26.7277 19.5936 27.5861 20.0828 27.783 21.0397C27.7698 21.0597 27.7644 21.0837 27.7676 21.1074C27.7709 21.2461 27.7926 21.3837 27.8323 21.5166C27.837 21.5358 27.8465 21.5535 27.86 21.5681C27.8734 21.5826 27.8904 21.5935 27.9092 21.5997C27.9492 21.6981 28.0815 21.7474 28.143 21.6274C28.5153 20.9074 29.2476 20.3259 28.6753 19.4921C28.3061 18.9475 27.4815 18.689 26.8784 18.6029C26.1123 18.4952 25.3216 18.4091 24.6724 18.9106C23.937 19.5136 23.3032 20.5659 23.9032 21.1843Z" fill="#390A0A"/>
<path d="M24.2113 21.0859C24.2154 21.6051 24.4253 22.1016 24.7951 22.4661C25.1649 22.8307 25.6642 23.0337 26.1835 23.0304C26.7028 23.0337 27.2021 22.8307 27.5719 22.4661C27.9417 22.1016 28.1517 21.6051 28.1557 21.0859C28.1537 20.8289 28.1011 20.5748 28.0009 20.3382C27.9007 20.1015 27.7549 19.8869 27.5717 19.7067C27.3886 19.5264 27.1717 19.3839 26.9335 19.2875C26.6954 19.191 26.4405 19.1424 26.1835 19.1444C25.9265 19.1424 25.6717 19.191 25.4335 19.2875C25.1953 19.3839 24.9784 19.5264 24.7953 19.7067C24.6122 19.8869 24.4663 20.1015 24.3661 20.3382C24.2659 20.5748 24.2133 20.8289 24.2113 21.0859V21.0859Z" fill="white"/>
<path d="M27.3895 21.1597C27.3895 22.0335 26.8357 22.7412 26.1588 22.7412C25.4819 22.7412 24.9281 22.0335 24.9281 21.1597C24.9281 20.2859 25.4788 19.5782 26.1588 19.5782C26.8388 19.5782 27.3895 20.2859 27.3895 21.1597Z" fill="#2B80B2"/>
<path d="M27.2234 21.1597C27.2234 21.9166 26.7465 22.5289 26.1558 22.5289C25.565 22.5289 25.0881 21.9135 25.0881 21.1597C25.0881 20.4059 25.565 19.7874 26.1558 19.7874C26.7465 19.7874 27.2234 20.4028 27.2234 21.1597Z" fill="#390A0A"/>
<path d="M26.6356 20.4028C26.8854 20.4028 27.0879 20.2651 27.0879 20.0951C27.0879 19.9252 26.8854 19.7874 26.6356 19.7874C26.3858 19.7874 26.1833 19.9252 26.1833 20.0951C26.1833 20.2651 26.3858 20.4028 26.6356 20.4028Z" fill="white"/>
<path d="M26.1098 25.1903C25.9075 25.9213 25.6237 26.6272 25.2637 27.2948C25.2365 27.3531 25.2057 27.4096 25.1714 27.464C24.2483 29.0732 22.5838 30.4054 20.1962 27.0271C20.1826 27.0054 20.1671 26.9848 20.1501 26.9656C19.8608 26.5471 19.5593 26.0579 19.2455 25.4918C19.3932 25.541 23.2545 26.7994 26.1098 25.1903Z" fill="white"/>
<path d="M25.2635 27.2948C25.2363 27.3531 25.2055 27.4096 25.1712 27.464C24.5949 27.5239 24.0151 27.5455 23.4359 27.5286C22.3283 27.4979 21.2822 27.221 20.1961 27.0271C20.1824 27.0053 20.167 26.9848 20.1499 26.9656C21.0594 27.1881 21.9855 27.3362 22.919 27.4086C23.7022 27.4243 24.4855 27.3863 25.2635 27.2948V27.2948Z" fill="#CD8B6D"/>
<path d="M15.0544 20.089C15.0544 20.089 14.6883 16.0645 20.5527 18.1198C20.631 17.7898 20.6764 17.4528 20.688 17.1137C20.6542 16.8922 14.2606 15.3015 15.0544 20.089Z" fill="#390A0A"/>
<path d="M29.9401 20.089C29.9401 20.089 30.3063 16.0645 24.4419 18.1198C24.3637 17.7897 24.3174 17.4528 24.3035 17.1137C24.3404 16.8922 30.734 15.3015 29.9401 20.089Z" fill="#390A0A"/>
<path d="M14.0211 23.8642L15.1072 31.4085L15.8272 31.8669L14.6303 24.1965L14.0211 23.8642Z" fill="#24B6BC"/>
<path d="M30.6017 23.5719L30.2263 31.1869L29.5555 31.71L30.0232 23.9627L30.6017 23.5719Z" fill="#24B6BC"/>
<path opacity="0.88" d="M45 23C45 35.1503 35.1503 45 23 45C10.8497 45 1 35.1503 1 23C1 10.8497 10.8497 1 23 1C35.1503 1 45 10.8497 45 23Z" stroke="#D8D9E4" stroke-width="2"/>
</svg>
