<svg width="127" height="144" viewBox="0 0 127 144" fill="none" xmlns="http://www.w3.org/2000/svg">
<path d="M82.226 41.1722C82.226 41.1722 104.114 52.2911 109.302 71.1203C114.491 89.9489 101.752 109.813 101.752 109.813C101.752 109.813 80.5997 99.1488 75.4102 80.3199C70.2213 61.4914 82.226 41.1722 82.226 41.1722Z" fill="#EE1E5F"/>
<path d="M0.0253791 69.5087C0.0253791 69.5087 2.25399 45.0602 17.8258 33.2713C33.3969 21.4823 56.5652 25.9652 56.5652 25.9652C56.5652 25.9652 54.4869 49.5621 38.9157 61.3518C23.3447 73.1407 0.0253791 69.5087 0.0253791 69.5087Z" fill="#47B6D4"/>
<path d="M91 14.5C91 22.5081 84.5081 29 76.5 29C68.4919 29 62 22.5081 62 14.5C62 6.49192 68.4919 0 76.5 0C84.5081 0 91 6.49192 91 14.5Z" fill="#FAB512"/>
<path d="M62 83.5C62 89.299 57.299 94 51.5 94C45.701 94 41 89.299 41 83.5C41 77.701 45.701 73 51.5 73C57.299 73 62 77.701 62 83.5Z" fill="#FAB512"/>
<path d="M7 144H37L37 114C20.3965 114.17 7 127.531 7 144Z" fill="#EE1E5F"/>
<path d="M67 144H37L37 114C53.6035 114.17 67 127.531 67 144Z" fill="#4E61B6"/>
</svg>
