<svg width="46" height="46" viewBox="0 0 46 46" fill="none" xmlns="http://www.w3.org/2000/svg">
<circle cx="23" cy="23" r="23" fill="white"/>
<circle cx="23" cy="23" r="22" stroke="#3A4276" stroke-opacity="0.2" stroke-width="2"/>
<mask id="mask0_75_77" style="mask-type:alpha" maskUnits="userSpaceOnUse" x="2" y="2" width="42" height="43">
<path d="M44 23.0017C44.0005 25.7596 43.4576 28.4905 42.4026 31.0385C41.3475 33.5865 39.8009 35.9018 37.851 37.852C35.9011 39.8022 33.5861 41.3493 31.0382 42.4047C28.4904 43.4602 25.7596 44.0035 23.0017 44.0035C17.4317 44.0035 12.0898 41.7908 8.15126 37.8522C4.21267 33.9136 2 28.5717 2 23.0017C2 17.4317 4.21267 12.0898 8.15126 8.15126C12.0898 4.21267 17.4317 2 23.0017 2C25.7596 2 28.4904 2.54325 31.0382 3.59873C33.5861 4.65421 35.9011 6.20124 37.851 8.15147C39.8009 10.1017 41.3475 12.4169 42.4026 14.965C43.4576 17.513 44.0005 20.2439 44 23.0017V23.0017Z" fill="white"/>
</mask>
<g mask="url(#mask0_75_77)">
<path d="M42.8465 47.1751H4.15039C4.22081 46.4901 4.56971 44.1086 6.31102 41.0645C8.37882 37.4443 17.5975 37.9596 17.908 37.4443C18.0424 37.2202 18.1193 36.3079 18.1641 35.3508C18.2185 34.1089 18.2185 32.7901 18.2185 32.7901L23.5 34.3458L28.7816 32.7901C28.7816 32.7901 28.7816 34.0993 28.8328 35.3508C28.8808 36.3111 28.9544 37.2362 29.0921 37.4635C29.4122 37.9788 38.6181 37.4635 40.6891 41.0837C42.4272 44.1086 42.7793 46.4901 42.8465 47.1751Z" fill="#CD8B6D"/>
<path d="M42.8465 47.1751H4.15039C4.22081 46.4901 4.56971 44.1086 6.31102 41.0645C8.05233 38.0204 14.9215 37.8956 17.1942 37.6267C17.6071 37.5755 17.8664 37.5243 17.9144 37.4443C17.9144 37.4443 23.404 44.5888 29.0985 37.4443C29.1497 37.5339 29.4762 37.5915 29.9883 37.6491C32.4082 37.9052 38.9862 38.0781 40.6955 41.0645C42.4272 44.1086 42.7793 46.4901 42.8465 47.1751Z" fill="#006986"/>
<path d="M29.9821 37.6491C25.5008 43.8814 20.1552 40.466 17.1783 37.6267C17.5913 37.5755 17.8505 37.5243 17.8986 37.4443C17.8986 37.4443 23.3882 44.5888 29.0826 37.4443C29.1434 37.5339 29.4699 37.5915 29.9821 37.6491Z" fill="#6EBCCE"/>
<path d="M14.4605 22.0029C14.4605 22.0029 12.0118 17.8673 11.0003 21.4108C9.98877 24.9542 12.4343 26.6443 14.0379 26.3082C15.6416 25.9721 14.4605 22.0029 14.4605 22.0029Z" fill="#CD8B6D"/>
<path d="M14.1759 22.6784C14.1759 22.6784 12.489 20.06 11.8968 21.1163C11.5364 21.8631 11.3912 22.6955 11.4775 23.5202C11.4775 23.5202 11.8136 22.0446 12.9115 22.88C12.9115 22.88 11.8552 25.2423 14.0094 24.5669C13.9966 24.5765 14.8833 23.8595 14.1759 22.6784Z" fill="#B66C50"/>
<path d="M32.0371 22.0029C32.0371 22.0029 34.4858 17.8673 35.4973 21.4108C36.5088 24.9542 34.0633 26.6443 32.4596 26.3082C30.856 25.9721 32.0371 22.0029 32.0371 22.0029Z" fill="#CD8B6D"/>
<path d="M32.0721 22.9536C32.0721 22.9536 33.759 20.3353 34.3512 21.3916C34.7117 22.1384 34.858 22.9705 34.7737 23.7955C34.7737 23.7955 34.4344 22.3199 33.3365 23.1553C33.3365 23.1553 34.3928 25.5176 32.2385 24.8422C32.2385 24.8518 31.3551 24.1348 32.0721 22.9536Z" fill="#B66C50"/>
<path d="M32.1009 28.7537C31.9152 31.7946 28.4486 34.0449 26.1824 35.05C24.884 35.6554 23.4268 35.8325 22.0212 35.5557C13.4555 33.0366 13.6987 27.2333 14.0828 25.604C14.467 23.9747 13.942 20.8026 14.9471 17.0383C15.0765 16.5512 15.2692 16.0831 15.5201 15.6459C17.0533 12.9699 20.3215 12.1089 20.3215 12.1089C25.9839 8.45021 29.9467 12.0449 31.2526 14.9897C31.3394 15.182 31.4164 15.3786 31.4831 15.5787C32.4722 18.61 32.2929 25.3415 32.1009 28.7537Z" fill="#E8B299"/>
<path d="M14.2845 13.21C14.1789 13.5301 13.8364 19.8231 14.1629 22.6784L17.1814 14.7625L14.2845 13.21Z" fill="#92561A"/>
<path d="M30.6444 13.831C30.6444 13.831 27.4851 15.1113 22.0851 16.3085C21.5346 16.4301 20.9648 16.5518 20.3662 16.6702C19.5532 16.8324 18.6996 16.9903 17.8055 17.1439C14.2557 17.7425 12.6392 16.7022 11.9318 15.3642C11.8751 15.2602 11.8238 15.1534 11.7781 15.0441C11.1155 13.4437 11.5925 11.5647 11.5925 11.5647C11.7781 11.9584 12.1878 11.9968 12.7768 11.7888C12.8858 11.7509 12.9927 11.7071 13.0969 11.6575C15.2191 10.7229 19.1467 7.45152 23.1831 6.07832C23.6844 5.9019 24.2138 5.81838 24.7451 5.83185C24.9967 5.84075 25.2467 5.87615 25.4909 5.93747C26.2845 6.15399 27.0033 6.58477 27.5683 7.18263C27.6548 7.27226 27.7412 7.36189 27.8244 7.45471C28.3375 8.04824 28.7751 8.70301 29.1272 9.40408C29.2296 9.59934 29.3256 9.79781 29.4185 9.99306C29.9912 11.2141 30.4032 12.5041 30.6444 13.831V13.831Z" fill="#A16929"/>
<path d="M27.8309 7.4419C27.053 8.32216 26.2624 9.18641 25.3982 10.0026C23.0071 12.2753 20.2383 14.2471 17.0117 15.1241C15.4113 15.5531 13.5419 15.8219 11.9318 15.3642C11.8752 15.2602 11.8239 15.1534 11.7782 15.0441C11.9158 15.0857 12.0535 15.1177 12.2039 15.1497C15.0848 15.7387 18.2857 14.692 20.7664 13.2292C23.3672 11.6235 25.6707 9.57998 27.5748 7.18903C27.6612 7.25945 27.7476 7.34908 27.8309 7.4419Z" fill="#C98643"/>
<path d="M25.4975 5.92467C24.0379 8.32857 22.1205 10.4476 19.8991 11.8208C18.0937 12.9347 16.0579 13.3508 14.0253 12.669C13.524 12.5135 13.0861 12.2002 12.777 11.776C12.886 11.7381 12.9928 11.6943 13.0971 11.6447C13.2862 11.8535 13.516 12.0212 13.7725 12.1377C14.8467 12.6181 16.0495 12.7306 17.1943 12.4578C19.1404 11.9872 20.8337 10.6845 22.1909 9.25684C23.1704 8.21263 24.0294 7.0616 24.7517 5.82544C25.0031 5.83224 25.2531 5.8655 25.4975 5.92467V5.92467Z" fill="#C98643"/>
<path d="M29.4251 9.98024C28.0184 11.6262 26.4507 13.1274 24.7453 14.4615C23.8999 15.1335 23.0113 15.7494 22.0854 16.3053C21.5348 16.4269 20.965 16.5485 20.3665 16.667C22.1356 15.8636 23.7685 14.789 25.2063 13.4821C26.6275 12.2295 27.9413 10.8601 29.1338 9.38806C29.2362 9.58652 29.3323 9.78498 29.4251 9.98024Z" fill="#C98643"/>
<path d="M33.1797 16.6542C33.1541 16.8911 33.1285 17.1279 33.0997 17.3584C32.9368 18.6498 32.7071 19.9319 32.4115 21.1995C32.3635 21.414 32.3187 21.5868 32.2899 21.7117C32.2547 21.8589 32.2322 21.9389 32.2322 21.9389L32.1714 21.5356C32.1714 21.5164 32.1714 21.5004 32.1714 21.4812C32.0402 20.4729 31.5313 19.1701 30.9103 17.8449C29.7939 15.5883 28.5278 13.4089 27.1204 11.3214C26.6882 9.72097 27.8342 9.00715 28.7656 8.68706C28.9221 8.63279 29.0813 8.58684 29.2426 8.54942C29.4375 8.50155 29.6353 8.46626 29.8347 8.44379C30.0017 8.44549 30.1685 8.45726 30.3341 8.479C30.5101 8.50625 30.6835 8.548 30.8526 8.60383C33.3174 9.43288 33.5126 13.2932 33.1797 16.6542Z" fill="#92561A"/>
<path d="M32.4211 21.2059C32.373 21.4204 32.3282 21.5932 32.2994 21.7181C32.2578 21.6412 32.213 21.5676 32.1746 21.4908C31.6002 20.4416 31.191 19.3101 30.9614 18.1362L30.9134 17.8545C30.3885 14.628 30.3917 11.3502 28.7688 8.69666C28.9252 8.64238 29.0844 8.59644 29.2457 8.55902C29.421 8.85049 29.5791 9.15189 29.7195 9.46169C30.2989 10.9073 30.6696 12.4281 30.8206 13.9782C31.0799 16.1324 31.1087 18.4147 32.0081 20.4249C32.133 20.6842 32.2642 20.9466 32.4211 21.2059Z" fill="#B56E2D"/>
<path d="M33.1798 16.6542C33.1542 16.8911 33.1286 17.128 33.0998 17.3584C31.6849 15.1178 30.9487 11.203 30.3278 8.48865C30.5038 8.51589 30.6772 8.55764 30.8463 8.61348C31.2752 10.2139 31.4865 11.9329 31.9506 13.4437C32.2377 14.5569 32.6501 15.6339 33.1798 16.6542V16.6542Z" fill="#B56E2D"/>
<path d="M17.86 19.0997C16.8998 19.6887 16.3268 21.1323 16.8998 22.0638C16.9254 22.1118 17.0246 22.0926 17.0182 22.0382C16.9728 21.6072 17.0252 21.1716 17.1715 20.7637C17.3178 20.3558 17.5543 19.9862 17.8632 19.6823C18.276 19.3061 18.8124 19.0942 19.3709 19.0869C20.0111 19.0453 20.2927 19.6183 20.7953 19.8135C20.8977 19.8552 21.029 19.7879 20.9937 19.6823C20.5968 18.4852 18.8427 18.5044 17.86 19.0997Z" fill="#390A0A"/>
<path d="M21.2497 21.7885C21.2497 23.3409 20.2894 24.6021 19.1179 24.6021C17.9463 24.6021 16.9893 23.3409 16.9893 21.7885C16.9893 20.236 17.9495 18.9749 19.1179 18.9749C20.2862 18.9749 21.2497 20.236 21.2497 21.7885Z" fill="white"/>
<path d="M20.7985 21.8718C20.7985 23.0273 20.0719 23.9652 19.1756 23.9652C18.2793 23.9652 17.5527 23.0273 17.5527 21.8718C17.5527 20.7162 18.2793 19.7751 19.1756 19.7751C20.0719 19.7751 20.7985 20.7226 20.7985 21.8718Z" fill="#3D79CA"/>
<path d="M20.5391 21.9038C20.5391 22.864 19.9437 23.6707 19.2107 23.6707C18.4777 23.6707 17.8823 22.88 17.8823 21.9038C17.8823 20.9275 18.4777 20.1368 19.2107 20.1368C19.9437 20.1368 20.5391 20.9307 20.5391 21.9038Z" fill="#390A0A"/>
<path d="M20.7983 20.3833C20.7983 20.5753 20.4206 20.729 19.9564 20.729C19.4923 20.729 19.1178 20.5753 19.1178 20.3833C19.1178 20.1912 19.4955 20.0344 19.9564 20.0344C20.4174 20.0344 20.7983 20.188 20.7983 20.3833Z" fill="white"/>
<path d="M28.6792 19.0997C29.6395 19.6887 30.2125 21.1323 29.6395 22.0638C29.6139 22.1118 29.5147 22.0926 29.5211 22.0382C29.5665 21.6072 29.5141 21.1716 29.3678 20.7637C29.2215 20.3558 28.985 19.9862 28.676 19.6823C28.2644 19.3063 27.7291 19.0944 27.1716 19.0869C26.5314 19.0453 26.2465 19.6183 25.744 19.8135C25.6415 19.8552 25.5103 19.7879 25.5455 19.6823C25.9424 18.4852 27.6965 18.5044 28.6792 19.0997Z" fill="#390A0A"/>
<path d="M29.3962 21.7885C29.3962 23.3409 28.4359 24.6021 27.2675 24.6021C26.0992 24.6021 25.1389 23.3409 25.1389 21.7885C25.1389 20.236 26.0992 18.9749 27.2675 18.9749C28.4359 18.9749 29.3962 20.236 29.3962 21.7885Z" fill="white"/>
<path d="M28.9447 21.8718C28.9447 23.0273 28.2181 23.9652 27.3219 23.9652C26.4256 23.9652 25.699 23.0369 25.699 21.8718C25.699 20.7066 26.4256 19.7751 27.3186 19.7751C28.2117 19.7751 28.9447 20.7226 28.9447 21.8718Z" fill="#3D79CA"/>
<path d="M28.6887 21.9038C28.6887 22.864 28.0933 23.6707 27.3571 23.6707C26.6208 23.6707 26.0287 22.88 26.0287 21.9038C26.0287 20.9275 26.624 20.1368 27.3571 20.1368C28.0901 20.1368 28.6887 20.9307 28.6887 21.9038Z" fill="#390A0A"/>
<path d="M28.945 20.3833C28.945 20.5753 28.5705 20.729 28.1063 20.729C27.6422 20.729 27.2677 20.5753 27.2677 20.3833C27.2677 20.1912 27.6422 20.0344 28.1063 20.0344C28.5705 20.0344 28.945 20.188 28.945 20.3833Z" fill="white"/>
<path d="M23.2086 20.4313C23.2086 20.4313 22.5684 19.7911 22.4532 22.0702C22.338 24.3492 22.4532 26.7307 22.4532 26.7307C22.4532 26.7307 20.9424 25.8473 21.4449 27.1084C21.717 27.787 22.3572 28.1359 23.0454 28.3152C23.2954 28.3874 23.5608 28.3867 23.8104 28.3129C24.06 28.2392 24.2832 28.0956 24.4538 27.8991C24.633 27.723 25.5677 26.7755 25.2732 26.481C25.1324 26.337 24.3129 26.6763 24.1049 26.7307C24.0985 26.7307 24.3417 19.9287 23.2086 20.4313Z" fill="#CD8B6D"/>
<path d="M26.9794 29.6596C26.9794 29.6596 24.0121 34.7459 19.9149 29.8517C19.9149 29.8517 22.3028 29.045 23.1767 29.762L23.4968 30.1237C23.4968 30.1237 24.4186 28.9874 26.9794 29.6596Z" fill="#B66C50"/>
<path d="M26.9794 29.6596C26.9794 29.6596 24.0121 34.7459 19.9149 29.8517C19.9373 29.8517 23.9417 31.689 26.9794 29.6596Z" fill="#CD8B6D"/>
<path d="M21.9476 17.8194C21.9476 18.6484 20.5072 18.1811 18.7467 18.1811C16.9862 18.1811 15.5458 18.6484 15.5458 17.8194C15.5458 16.9903 16.983 15.1786 18.7467 15.1786C20.5104 15.1786 21.9476 16.9903 21.9476 17.8194Z" fill="#6D3A12"/>
<path d="M30.6445 17.8194C30.6445 18.6484 29.2073 18.1811 27.4436 18.1811C25.6799 18.1811 24.2427 18.6484 24.2427 17.8194C24.2427 16.9903 25.6799 15.1786 27.4436 15.1786C29.2073 15.1786 30.6445 16.9903 30.6445 17.8194Z" fill="#6D3A12"/>
</g>
</svg>
