<svg width="46" height="46" viewBox="0 0 46 46" fill="none" xmlns="http://www.w3.org/2000/svg">
<circle cx="23" cy="23" r="23" fill="white"/>
<circle cx="23" cy="23" r="22" stroke="#3A4276" stroke-opacity="0.2" stroke-width="2"/>
<mask id="mask0_76_129" style="mask-type:alpha" maskUnits="userSpaceOnUse" x="0" y="0" width="46" height="46">
<circle cx="23" cy="23" r="23" fill="white"/>
</mask>
<g mask="url(#mask0_76_129)">
<mask id="mask1_76_129" style="mask-type:alpha" maskUnits="userSpaceOnUse" x="2" y="3" width="42" height="43">
<path d="M44 24.0017C44.0005 26.7596 43.4576 29.4905 42.4026 32.0385C41.3475 34.5865 39.8009 36.9018 37.851 38.852C35.9011 40.8022 33.5861 42.3493 31.0382 43.4047C28.4904 44.4602 25.7596 45.0035 23.0017 45.0035C17.4317 45.0035 12.0898 42.7908 8.15126 38.8522C4.21267 34.9136 2 29.5717 2 24.0017C2 18.4317 4.21267 13.0898 8.15126 9.15126C12.0898 5.21267 17.4317 3 23.0017 3C25.7596 3 28.4904 3.54325 31.0382 4.59873C33.5861 5.65421 35.9011 7.20124 37.851 9.15147C39.8009 11.1017 41.3475 13.4169 42.4026 15.965C43.4576 18.513 44.0005 21.2439 44 24.0017V24.0017Z" fill="white"/>
</mask>
<g mask="url(#mask1_76_129)">
<mask id="mask2_76_129" style="mask-type:alpha" maskUnits="userSpaceOnUse" x="2" y="1" width="43" height="43">
<path d="M45 22.5018C45 25.325 44.4439 28.1205 43.3635 30.7288C42.2832 33.3371 40.6996 35.707 38.7033 37.7033C36.707 39.6996 34.3371 41.2832 31.7288 42.3635C29.1205 43.4439 26.325 44 23.5018 44C17.7992 44 12.3301 41.7346 8.29773 37.7023C4.26536 33.6699 2 28.2008 2 22.4982C2 19.6747 2.55618 16.8789 3.63679 14.2704C4.7174 11.6619 6.30127 9.29176 8.29794 7.29542C10.2946 5.29908 12.665 3.7156 15.2737 2.63543C17.8824 1.55525 20.6783 0.999533 23.5018 1C26.3253 1 29.1211 1.55619 31.7296 2.63679C34.3381 3.7174 36.7082 5.30127 38.7046 7.29794C40.7009 9.29461 42.2844 11.665 43.3646 14.2737C44.4447 16.8824 45.0005 19.6783 45 22.5018Z" fill="white"/>
</mask>
<g mask="url(#mask2_76_129)">
<path d="M34.2843 47.3306L23.4051 47.4964L12.7356 47.3306C12.4549 46.3747 12.4304 45.3618 12.6645 44.3934C12.9454 43.2666 13.6797 42.0247 15.3108 41.0095C16.1572 40.5017 17.0676 40.1091 18.0179 39.842C18.2852 39.7676 18.5627 39.6931 18.8571 39.6255C19.1515 39.5578 19.5136 39.48 19.8723 39.419C20.2309 39.3581 20.6066 39.2938 21.0025 39.2431L21.0668 39.2769C20.975 37.9216 20.6866 36.5867 20.2106 35.3144L26.4506 35.5614C26.1124 36.698 25.9604 37.8819 26.0005 39.0671L26.0276 39.0468C26.7365 39.1356 27.4403 39.2621 28.1358 39.4258L28.5757 39.5341C28.9411 39.6334 29.2863 39.7383 29.6111 39.8488C30.1852 40.0408 30.7412 40.2832 31.2726 40.573C32.5957 41.232 33.6303 42.3544 34.1794 43.7268C34.632 44.8794 34.6691 46.1536 34.2843 47.3306Z" fill="#CD8B6D"/>
<path d="M34.5416 45.8925C34.5416 46.0583 34.5213 46.2308 34.5044 46.356C34.4649 46.6843 34.3912 47.0075 34.2845 47.3205L23.4052 47.4863L12.7357 47.3205C12.6015 46.8813 12.5275 46.426 12.5158 45.9669C12.5158 45.9161 12.5158 45.8688 12.5158 45.8146C12.5042 45.3329 12.5554 44.8517 12.668 44.3832C12.7271 44.1537 12.7994 43.9277 12.8846 43.7065C12.9354 43.588 12.9929 43.4662 13.0504 43.3478C13.5699 42.3629 14.3539 41.5426 15.3143 40.979L15.4699 40.8809L15.6966 40.7557C16.4374 40.3601 17.2177 40.0436 18.0248 39.8116C18.2921 39.7371 18.5696 39.6627 18.864 39.595C19.1584 39.5273 19.5205 39.4495 19.8792 39.3886C21.1718 41.226 24.0346 43.7132 28.5826 39.5036C28.948 39.6029 29.2932 39.7078 29.618 39.8183C30.1921 40.0104 30.7481 40.2527 31.2795 40.5425C31.3641 40.5865 31.4453 40.6339 31.5266 40.6812C31.7059 40.7861 31.865 40.891 32.0308 41.0027C33.006 41.6669 33.7574 42.6106 34.1863 43.7098C34.2337 43.8316 34.2777 43.9535 34.3115 44.0719C34.3543 44.1899 34.3882 44.3109 34.413 44.434C34.5247 44.9116 34.568 45.4027 34.5416 45.8925V45.8925Z" fill="#FFAC30"/>
<path d="M32.0241 41.023C28.9786 42.7589 25.5202 44.0685 22.2311 43.7471C19.7473 43.4732 17.3963 42.4847 15.4633 40.9012L15.69 40.776C18.0587 42.583 21.0095 43.6861 23.9027 43.3511C26.6674 43.0127 29.141 41.9807 31.5165 40.7015C31.6992 40.8166 31.8651 40.9113 32.0241 41.023Z" fill="white"/>
<path d="M34.4062 44.4408C30.9213 45.5399 27.2675 46.0052 23.6183 45.8146C20.5728 45.6217 17.4799 45.3443 14.5799 44.3629C14.0046 44.1667 13.4406 43.9535 12.8879 43.7234C12.9387 43.6049 12.9962 43.4831 13.0537 43.3647C16.633 44.6872 20.406 45.4098 24.2206 45.5033C27.4256 45.6425 30.6307 45.2292 33.6956 44.2817C33.9054 44.2174 34.1118 44.1464 34.3182 44.0787C34.3564 44.1971 34.3858 44.3181 34.4062 44.4408Z" fill="white"/>
<path d="M15.673 19.9819C15.673 19.9819 12.7493 15.0448 11.5412 19.278C10.3332 23.5113 13.2535 25.5213 15.1688 25.1187C17.0841 24.716 15.673 19.9819 15.673 19.9819Z" fill="#CD8B6D"/>
<path d="M15.3175 20.7872C15.3175 20.7872 13.3041 17.6639 12.6104 18.9227C11.9167 20.1815 12.1062 21.7956 12.1062 21.7956C12.1062 21.7956 12.5089 20.0326 13.8184 21.0376C13.8184 21.0376 12.5596 23.8598 15.128 23.068C15.1179 23.0545 16.177 22.2051 15.3175 20.7872Z" fill="#B66C50"/>
<path d="M31.0966 19.3762C31.0966 19.3762 34.0169 14.439 35.2283 18.6723C36.4398 22.9056 33.5161 24.919 31.6008 24.5129C29.6855 24.1069 31.0966 19.3762 31.0966 19.3762Z" fill="#CD8B6D"/>
<path d="M31.1408 20.5132C31.1408 20.5132 33.1711 17.3898 33.8479 18.652C34.5247 19.9142 34.3521 21.5216 34.3521 21.5216C34.3521 21.5216 33.9494 19.7586 32.6398 20.767C32.6398 20.767 33.8986 23.5858 31.3303 22.7804C31.3438 22.777 30.2846 21.9209 31.1408 20.5132Z" fill="#B66C50"/>
<path d="M15.8693 13.1836C15.5783 13.478 15.1654 21.8464 15.3651 25.0713C15.5647 28.2962 16.7762 37.3616 24.0313 37.3616C31.2864 37.3616 32.491 24.9698 30.7788 13.989C30.7822 13.989 23.0262 5.92852 15.8693 13.1836Z" fill="#E8B299"/>
<path d="M18.2685 18.652C17.3921 19.278 16.8912 20.8042 17.3988 21.7855C17.4055 21.7953 17.415 21.8028 17.4261 21.807C17.4372 21.8112 17.4493 21.8119 17.4608 21.8089C17.4723 21.8059 17.4826 21.7995 17.4903 21.7905C17.4979 21.7814 17.5026 21.7702 17.5037 21.7584C17.4603 21.3141 17.5052 20.8656 17.6359 20.4388C17.7666 20.0119 17.9804 19.6151 18.2651 19.2712C18.4363 19.0801 18.6446 18.9258 18.8773 18.8176C19.11 18.7094 19.3622 18.6496 19.6187 18.6418C20.1905 18.5945 20.4477 19.2002 20.8978 19.41C20.919 19.4218 20.9433 19.4273 20.9676 19.4256C20.9919 19.4238 21.0151 19.4151 21.0345 19.4004C21.0539 19.3857 21.0686 19.3656 21.0768 19.3427C21.0849 19.3197 21.0862 19.2949 21.0805 19.2712C20.7286 18.0023 19.1517 18.026 18.2685 18.652Z" fill="#390A0A"/>
<path d="M21.3139 21.4945C21.3139 23.1357 20.4578 24.4655 19.3986 24.4655C18.3394 24.4655 17.4867 23.1357 17.4867 21.4945C17.4867 19.8533 18.3428 18.5234 19.3986 18.5234C20.4544 18.5234 21.3139 19.8533 21.3139 21.4945Z" fill="white"/>
<path d="M20.9079 21.5926C20.9079 22.8142 20.2548 23.8057 19.4495 23.8057C18.6441 23.8057 17.9944 22.8142 17.9944 21.5926C17.9944 20.371 18.6441 19.3795 19.4495 19.3795C20.2548 19.3795 20.9079 20.371 20.9079 21.5926Z" fill="#3D79CA"/>
<path d="M20.6778 21.6163C20.6778 22.6484 20.1398 23.4842 19.4799 23.4842C18.8201 23.4842 18.2854 22.6484 18.2854 21.6163C18.2854 20.5842 18.8234 19.7518 19.4799 19.7518C20.1364 19.7518 20.6778 20.5876 20.6778 21.6163Z" fill="#390A0A"/>
<path d="M20.9078 20.009C20.9078 20.212 20.5694 20.3778 20.1532 20.3778C19.737 20.3778 19.3986 20.212 19.3986 20.009C19.3986 19.8059 19.737 19.6435 20.1532 19.6435C20.5694 19.6435 20.9078 19.8059 20.9078 20.009Z" fill="white"/>
<path d="M28.5487 18.652C29.4252 19.278 29.9294 20.8042 29.4184 21.7855C29.4117 21.7953 29.4022 21.8028 29.3911 21.807C29.38 21.8112 29.3679 21.8119 29.3564 21.8089C29.3449 21.8059 29.3346 21.7995 29.3269 21.7905C29.3193 21.7814 29.3146 21.7702 29.3135 21.7584C29.3584 21.314 29.3142 20.8652 29.1835 20.4381C29.0527 20.011 28.8381 19.6143 28.5521 19.2712C28.3809 19.0801 28.1726 18.9258 27.9399 18.8176C27.7072 18.7094 27.455 18.6496 27.1985 18.6418C26.6267 18.5945 26.3695 19.2002 25.9194 19.41C25.8983 19.4208 25.8744 19.4254 25.8507 19.4233C25.827 19.4211 25.8045 19.4122 25.7857 19.3976C25.7668 19.3831 25.7526 19.3634 25.7445 19.3411C25.7364 19.3187 25.7349 19.2945 25.7401 19.2712C26.0886 18.0023 27.6689 18.026 28.5487 18.652Z" fill="#390A0A"/>
<path d="M29.1951 21.4945C29.1951 23.1357 28.339 24.4655 27.2832 24.4655C26.2274 24.4655 25.3679 23.1357 25.3679 21.4945C25.3679 19.8533 26.224 18.5234 27.2832 18.5234C28.3424 18.5234 29.1951 19.8533 29.1951 21.4945Z" fill="white"/>
<path d="M28.789 21.5926C28.789 22.8142 28.1359 23.8057 27.3306 23.8057C26.5252 23.8057 25.8755 22.8142 25.8755 21.5926C25.8755 20.371 26.5286 19.3795 27.3306 19.3795C28.1326 19.3795 28.789 20.371 28.789 21.5926Z" fill="#3D79CA"/>
<path d="M28.5588 21.6163C28.5588 22.6484 28.0242 23.4842 27.3643 23.4842C26.7045 23.4842 26.1698 22.6484 26.1698 21.6163C26.1698 20.5842 26.7045 19.7518 27.3643 19.7518C28.0242 19.7518 28.5588 20.5876 28.5588 21.6163Z" fill="#390A0A"/>
<path d="M28.7889 20.009C28.7889 20.212 28.4505 20.3778 28.0343 20.3778C27.6181 20.3778 27.2831 20.212 27.2831 20.009C27.2831 19.8059 27.6215 19.6435 28.0343 19.6435C28.4471 19.6435 28.7889 19.8059 28.7889 20.009Z" fill="white"/>
<path d="M17.0027 18.9667C17.0027 18.9667 18.4781 16.0938 21.5168 18.6283C21.5168 18.6385 19.0533 17.735 17.0027 18.9667Z" fill="#7C2C14"/>
<path d="M25.3748 18.6385C25.3748 18.6385 26.8535 15.7655 29.8923 18.3001C29.8923 18.3102 27.4288 17.4067 25.3748 18.6385Z" fill="#7C2C14"/>
<path d="M31.9225 18.1444C31.9225 18.0226 31.8954 17.9042 31.8819 17.806C31.8683 17.7079 31.848 17.5827 31.8413 17.4913C31.6755 16.0532 33.3268 14.1819 32.518 12.7877C32.271 12.3613 31.7939 12.2192 31.3607 12.0771C29.7026 11.539 30.261 9.56282 30.2948 8.31754C30.3253 7.42419 30.0613 5.90143 28.992 5.63411L28.833 5.59689C28.7036 5.57093 28.5723 5.55621 28.4404 5.55289C28.0444 5.55316 27.6523 5.63134 27.2865 5.783C27.0293 5.88452 25.2562 7.16025 25.1039 6.77448C24.3764 5.00131 23.0025 4.57833 21.7775 5.05207C21.5567 5.14089 21.3467 5.25441 21.1515 5.39046C20.4582 5.87146 19.9301 6.55442 19.6389 7.34636C19.578 7.49864 19.3716 10.3919 18.529 9.50191C18.1466 9.10261 17.6593 8.4326 17.0603 8.31078C15.7068 8.04007 14.898 8.85559 14.1468 9.90122C13.3313 11.0382 12.8135 12.6083 13.1147 14.0127C13.3144 14.9528 13.6127 15.8693 14.0047 16.7469C14.0724 16.8991 14.1333 17.0548 14.1942 17.2172C14.2551 17.3797 14.2788 17.4507 14.3194 17.5556C14.5081 18.1893 14.7716 18.7981 15.1044 19.3694C15.087 19.4048 15.0801 19.4446 15.0845 19.4838C15.089 19.5231 15.1046 19.5602 15.1296 19.5909C15.1545 19.6215 15.1877 19.6444 15.2252 19.6567C15.2628 19.669 15.3031 19.6703 15.3413 19.6604C16.6103 19.4168 17.3175 17.894 17.6559 16.7739C17.8795 16.1285 18.0227 15.4579 18.0823 14.7774C18.5213 15.0858 18.9978 15.3371 19.5002 15.5253C19.9571 15.6739 20.4485 15.68 20.9091 15.5428C21.3696 15.4056 21.7775 15.1316 22.0787 14.7571C22.7859 15.5388 24.0853 15.884 24.999 15.2613C25.3216 14.9933 25.5504 14.6294 25.6521 14.2225C25.7466 13.8543 25.8155 13.4801 25.8585 13.1024C26.2138 11.4104 28.5216 12.1075 28.8837 13.1802C29.1544 13.9788 28.8499 15.0042 28.8837 15.8332C28.9176 16.557 29.0851 17.2683 29.3778 17.9312C29.6857 18.6283 30.393 19.9345 31.3844 19.6604C31.9665 19.498 31.9935 18.7738 31.9326 18.158L31.9225 18.1444Z" fill="#A6562F"/>
<path d="M15.4361 17.1022C15.0931 17.3219 14.712 17.4757 14.3126 17.5556C14.272 17.4372 14.228 17.3187 14.1874 17.2172C15.2466 16.8788 16.5121 15.5591 16.7625 14.7233C16.9031 14.3507 16.9626 13.9524 16.9369 13.555C16.9112 13.1576 16.801 12.7702 16.6137 12.4188C16.3565 12.006 15.5985 10.9062 14.8946 11.7217C14.1975 12.4831 14.3837 12.879 15.4665 12.9061C15.4909 12.8756 15.5254 12.8548 15.5638 12.8477C15.6022 12.8405 15.6419 12.8474 15.6756 12.8672C15.7093 12.8869 15.7348 12.9181 15.7473 12.9551C15.7599 12.9921 15.7587 13.0324 15.744 13.0685C15.0401 14.4559 13.849 13.1464 14.2077 12.0195C14.7863 10.1888 16.5764 11.4206 17.0976 12.4628C17.8995 14.0397 16.8404 16.219 15.4361 17.1022Z" fill="#D8744C"/>
<path d="M21.7709 5.05206C21.5536 5.42156 21.3581 5.80347 21.1854 6.19583C20.6415 7.331 20.4743 8.61023 20.7083 9.84707C21.0467 11.424 22.363 13.7081 24.2513 12.3004C24.6626 12.0365 24.9699 11.6384 25.1209 11.1736C25.4841 10.0072 24.7453 9.43648 22.9045 9.4613C22.6202 9.76585 21.913 10.5103 22.671 10.8555C22.8537 10.9367 22.7217 11.2142 22.539 11.1668C21.7404 10.9807 21.7844 10.2328 22.2311 9.63388C22.4682 9.2752 22.8162 9.00397 23.2219 8.8616C23.6276 8.71924 24.0687 8.71355 24.478 8.84542C25.4492 9.08906 25.8315 10.4359 25.5101 11.2785C25.3537 11.7132 25.0899 12.1013 24.7432 12.4066C24.3965 12.7119 23.9781 12.9245 23.5271 13.0246C20.5899 13.8028 19.8657 9.23796 20.3801 7.32605C20.5758 6.65466 20.8318 6.0023 21.1448 5.37692L21.7709 5.05206Z" fill="#D8744C"/>
<path d="M31.9225 18.1444C31.5544 18.0733 31.2131 17.9016 30.9365 17.6483C30.66 17.395 30.459 17.0702 30.3558 16.7097C30.1967 16.2156 30.4167 15.6031 30.5013 15.126C30.7788 13.5897 29.97 12.7911 29.0902 11.7116C28.3458 10.798 27.6419 9.58652 27.6453 8.36493C27.6944 7.37719 27.9638 6.41293 28.4337 5.54276C28.5656 5.54607 28.6969 5.56079 28.8263 5.58675C28.3954 6.27867 28.1238 7.05771 28.031 7.8675C28.0367 9.01517 28.4142 10.1301 29.1071 11.045C29.8448 12.0602 30.7517 12.8621 30.9886 14.1413C31.0867 14.6759 30.8532 15.2106 30.7822 15.7249C30.5961 17.0582 31.1612 17.6436 31.8819 17.7959C31.8955 17.9143 31.9124 18.0328 31.9225 18.1444Z" fill="#D8744C"/>
<path d="M31.2152 29.6497C31.1324 29.5419 31.0395 29.4421 30.9377 29.3519C30.3354 28.8207 29.5842 28.7767 28.6942 28.6108C28.1234 28.5448 27.5456 28.6397 27.0259 28.8849C26.9226 28.8878 26.8201 28.9049 26.7214 28.9357C25.9296 29.1861 25.7062 28.6616 25.1039 28.4247C24.2294 28.0462 23.2522 27.9758 22.3325 28.2251C21.8113 28.374 21.3173 28.7834 20.8232 28.9898C20.2175 29.2403 19.2396 29.0237 18.5932 28.9898C17.6371 28.861 16.6653 29.0552 15.832 29.5414C14.6848 30.2182 14.3261 31.5041 14.4073 32.746C14.4171 32.9025 14.4351 33.0584 14.4615 33.213C14.4615 33.213 14.4615 33.213 14.4615 33.213C14.5103 33.5436 14.5908 33.8688 14.7017 34.1841C15.3785 36.1367 17.26 37.2533 19.0704 38.0012C21.0466 38.8099 23.3036 39.2059 25.3543 38.8573C25.5201 38.8303 25.6927 38.7964 25.8517 38.7558C26.8526 38.5353 27.7893 38.0877 28.5896 37.4476C29.3899 36.8074 30.0324 35.9919 30.4674 35.064C31.266 33.4566 32.3116 31.0913 31.2152 29.6497Z" fill="#8E3F20"/>
<path d="M25.8449 38.7321C25.6825 38.7727 25.5066 38.8066 25.3475 38.8336C25.7328 38.4374 26.029 37.9634 26.2163 37.4434C26.4037 36.9235 26.4778 36.3695 26.4337 35.8186C26.2409 34.2823 24.7181 33.6089 23.307 34.0048C22.6039 34.1637 21.9542 34.5031 21.4222 34.9895C21.1413 35.2873 20.8232 35.6832 20.8706 36.1299C21.2394 37.0503 21.7809 37.2939 22.4881 36.8608V36.1299C22.2817 35.9945 22.4881 35.6663 22.6878 35.7915C24.3797 36.8067 21.0973 38.4986 20.5119 36.4243C19.9671 34.4887 23.3442 33.1588 24.7722 33.5581C27.3169 34.2789 27.1714 36.9623 25.8449 38.7321Z" fill="#B75B3E"/>
<path d="M29.8313 35.8253C28.1394 37.3075 27.3001 34.7492 27.801 33.3889C28.3221 31.9541 29.4117 30.0964 30.9345 29.3282C31.0362 29.4184 31.1291 29.5181 31.2119 29.626C30.6306 29.9003 30.1157 30.2974 29.7027 30.7901C28.9861 31.5483 28.4525 32.4604 28.1427 33.4566C27.9025 34.0963 27.9231 34.8048 28.2003 35.4294L29.5538 35.5275C29.8427 35.205 30.0463 34.8153 30.146 34.3939L29.5572 33.3077C29.476 33.4058 29.3406 33.3077 29.3609 33.1926L29.4083 32.9524C29.4162 32.9217 29.4324 32.8938 29.4551 32.8718C29.4777 32.8497 29.5061 32.8343 29.5369 32.8272C31.1443 32.5091 30.4912 35.2399 29.8313 35.8253Z" fill="#B75B3E"/>
<path d="M18.9147 35.064C18.4511 35.4023 17.49 35.8964 17.0163 35.2501C16.661 34.7594 16.5561 34.1131 17.111 33.7307C17.1355 33.7157 17.1636 33.7078 17.1923 33.7078C17.2209 33.7078 17.249 33.7157 17.2735 33.7307L17.4494 33.8288C17.4631 33.8375 17.474 33.8499 17.4808 33.8645C17.4876 33.8791 17.4901 33.8954 17.488 33.9115C17.4859 33.9275 17.4792 33.9426 17.4687 33.9549C17.4583 33.9672 17.4446 33.9763 17.4291 33.9811C16.4816 34.2011 18.2819 35.3516 18.9147 34.5665C19.4358 33.8424 19.4256 33.1791 18.8842 32.5768C18.4448 32.13 17.8833 31.8227 17.2701 31.6936C16.6999 31.5667 16.1032 31.6459 15.5859 31.9173C15.0686 32.1886 14.6642 32.6345 14.4445 33.1757C14.4182 33.0212 14.4001 32.8653 14.3904 32.7088C14.6047 32.2125 14.9849 31.8062 15.4657 31.5593C15.9466 31.3124 16.4983 31.2403 17.0264 31.3552C18.556 31.653 20.9112 33.6156 18.9147 35.064Z" fill="#B75B3E"/>
<path d="M26.9346 30.4618C26.9346 30.4618 23.6522 34.8948 19.4629 30.4618C19.4629 30.4618 22.011 29.8054 22.9145 30.4618L23.2529 30.8002C23.2529 30.8002 24.2274 29.8054 26.9346 30.4618Z" fill="#B66C50"/>
<path d="M26.9346 30.4619C26.9346 30.4619 23.6522 34.8948 19.4629 30.4619C19.4629 30.4619 23.6522 32.1876 26.9346 30.4619Z" fill="#CD8B6D"/>
<path d="M26.7553 16.8551C25.4186 17.1021 24.2545 17.5319 22.8671 17.2747C22.1052 17.0774 21.3187 16.9919 20.5322 17.0209C20.4713 17.0209 20.4443 17.1224 20.5322 17.136C22.7758 17.515 24.6505 17.938 26.8195 16.9668C26.8703 16.9363 26.8195 16.845 26.7553 16.8551Z" fill="#CD8B6D"/>
<path d="M25.6419 16.2697C25.0463 16.2269 24.4479 16.2416 23.8552 16.3137C23.0735 16.3577 22.302 16.1445 21.5169 16.1817C21.4994 16.1854 21.4838 16.195 21.4726 16.2089C21.4613 16.2227 21.4552 16.24 21.4552 16.2579C21.4552 16.2757 21.4613 16.293 21.4726 16.3069C21.4838 16.3207 21.4994 16.3303 21.5169 16.334C22.9212 16.4626 24.224 16.6724 25.6419 16.4118C25.7129 16.3983 25.7163 16.2765 25.6419 16.2697Z" fill="#CD8B6D"/>
<path d="M23.8958 26.0188C23.6623 25.6093 23.8958 24.8344 23.8958 24.3539C23.8958 23.7143 23.9466 23.0917 23.9466 22.4487C23.9466 21.9378 24.0785 20.7568 23.6894 20.2255C23.6556 19.7281 23.2055 19.7551 22.9889 20.1815C22.6269 20.8955 22.6878 21.8329 22.6878 22.6145C22.6878 23.2913 22.6708 23.976 22.637 24.6686C22.6133 25.1254 22.637 25.809 22.4509 26.2116C21.8519 25.8733 21.1244 25.5958 21.5914 26.5805C21.8249 27.0745 22.6269 28.1574 23.2427 28.0931C23.9195 28.0288 24.7993 26.9087 25.043 26.3301C25.4017 25.4435 24.3763 25.7108 23.8958 26.0188Z" fill="#CD8B6D"/>
</g>
</g>
</g>
</svg>
