<svg width="22" height="18" viewBox="0 0 22 18" fill="none" xmlns="http://www.w3.org/2000/svg">
<path d="M1.72499 18C1.34165 18 1.05832 17.8333 0.874988 17.5C0.691654 17.1667 0.691654 16.8333 0.874988 16.5L10.125 0.5C10.3083 0.166667 10.6 0 11 0C11.4 0 11.6917 0.166667 11.875 0.5L21.125 16.5C21.3083 16.8333 21.3083 17.1667 21.125 17.5C20.9417 17.8333 20.6583 18 20.275 18H1.72499ZM11 7C10.7167 7 10.4793 7.09567 10.288 7.287C10.096 7.479 9.99999 7.71667 9.99999 8V11C9.99999 11.2833 10.096 11.5207 10.288 11.712C10.4793 11.904 10.7167 12 11 12C11.2833 12 11.521 11.904 11.713 11.712C11.9043 11.5207 12 11.2833 12 11V8C12 7.71667 11.9043 7.479 11.713 7.287C11.521 7.09567 11.2833 7 11 7ZM11 15C11.2833 15 11.521 14.904 11.713 14.712C11.9043 14.5207 12 14.2833 12 14C12 13.7167 11.9043 13.4793 11.713 13.288C11.521 13.096 11.2833 13 11 13C10.7167 13 10.4793 13.096 10.288 13.288C10.096 13.4793 9.99999 13.7167 9.99999 14C9.99999 14.2833 10.096 14.5207 10.288 14.712C10.4793 14.904 10.7167 15 11 15Z" fill="white"/>
</svg>
